<mxfile host="65bd71144e">
    <diagram id="hPzsfqyS5hiNs38GZZEW" name="第 1 页">
        <mxGraphModel dx="1138" dy="680" grid="1" gridSize="10" guides="1" tooltips="1" connect="1" arrows="1" fold="1" page="1" pageScale="1" pageWidth="3300" pageHeight="4681" math="0" shadow="0">
            <root>
                <mxCell id="0"/>
                <mxCell id="1" parent="0"/>
                <mxCell id="6" value="" style="edgeStyle=none;html=1;" parent="1" source="2" target="5" edge="1">
                    <mxGeometry relative="1" as="geometry"/>
                </mxCell>
                <mxCell id="61" value="" style="edgeStyle=none;html=1;" parent="1" source="2" target="60" edge="1">
                    <mxGeometry relative="1" as="geometry"/>
                </mxCell>
                <mxCell id="2" value="触发召回" style="whiteSpace=wrap;html=1;" parent="1" vertex="1">
                    <mxGeometry x="505" y="90" width="120" height="60" as="geometry"/>
                </mxCell>
                <mxCell id="13" value="" style="edgeStyle=none;html=1;" parent="1" source="5" target="12" edge="1">
                    <mxGeometry relative="1" as="geometry"/>
                </mxCell>
                <mxCell id="14" value="是" style="edgeLabel;html=1;align=center;verticalAlign=middle;resizable=0;points=[];" parent="13" vertex="1" connectable="0">
                    <mxGeometry x="-0.075" y="2" relative="1" as="geometry">
                        <mxPoint as="offset"/>
                    </mxGeometry>
                </mxCell>
                <mxCell id="19" value="" style="edgeStyle=none;html=1;" parent="1" source="5" target="18" edge="1">
                    <mxGeometry relative="1" as="geometry"/>
                </mxCell>
                <mxCell id="21" value="否" style="edgeLabel;html=1;align=center;verticalAlign=middle;resizable=0;points=[];" parent="19" vertex="1" connectable="0">
                    <mxGeometry x="-0.175" y="2" relative="1" as="geometry">
                        <mxPoint as="offset"/>
                    </mxGeometry>
                </mxCell>
                <mxCell id="5" value="是定时配送" style="rhombus;whiteSpace=wrap;html=1;" parent="1" vertex="1">
                    <mxGeometry x="455" y="190" width="210" height="80" as="geometry"/>
                </mxCell>
                <mxCell id="16" value="" style="edgeStyle=none;html=1;" parent="1" source="12" target="15" edge="1">
                    <mxGeometry relative="1" as="geometry"/>
                </mxCell>
                <mxCell id="17" value="是" style="edgeLabel;html=1;align=center;verticalAlign=middle;resizable=0;points=[];" parent="16" vertex="1" connectable="0">
                    <mxGeometry x="-0.0667" y="1" relative="1" as="geometry">
                        <mxPoint as="offset"/>
                    </mxGeometry>
                </mxCell>
                <mxCell id="22" value="" style="edgeStyle=none;html=1;" parent="1" source="12" target="5" edge="1">
                    <mxGeometry relative="1" as="geometry"/>
                </mxCell>
                <mxCell id="27" value="" style="edgeStyle=none;html=1;" parent="1" source="12" target="26" edge="1">
                    <mxGeometry relative="1" as="geometry"/>
                </mxCell>
                <mxCell id="28" value="否" style="edgeLabel;html=1;align=center;verticalAlign=middle;resizable=0;points=[];" parent="27" vertex="1" connectable="0">
                    <mxGeometry x="0.1804" y="3" relative="1" as="geometry">
                        <mxPoint as="offset"/>
                    </mxGeometry>
                </mxCell>
                <mxCell id="12" value="是待配送状态" style="rhombus;whiteSpace=wrap;html=1;" parent="1" vertex="1">
                    <mxGeometry x="230" y="280" width="210" height="80" as="geometry"/>
                </mxCell>
                <mxCell id="37" value="" style="edgeStyle=none;html=1;" parent="1" source="15" target="36" edge="1">
                    <mxGeometry relative="1" as="geometry"/>
                </mxCell>
                <mxCell id="15" value="先创建运输单，创建召回订单，取消配送（删除定时）" style="whiteSpace=wrap;html=1;" parent="1" vertex="1">
                    <mxGeometry x="310" y="500" width="120" height="60" as="geometry"/>
                </mxCell>
                <mxCell id="34" value="否" style="edgeStyle=none;html=1;entryX=0.5;entryY=0;entryDx=0;entryDy=0;" parent="1" source="18" target="32" edge="1">
                    <mxGeometry relative="1" as="geometry"/>
                </mxCell>
                <mxCell id="35" value="是" style="edgeStyle=none;html=1;entryX=1;entryY=0;entryDx=0;entryDy=0;" parent="1" source="18" target="29" edge="1">
                    <mxGeometry relative="1" as="geometry"/>
                </mxCell>
                <mxCell id="18" value="是配送中" style="rhombus;whiteSpace=wrap;html=1;" parent="1" vertex="1">
                    <mxGeometry x="670" y="260" width="210" height="80" as="geometry"/>
                </mxCell>
                <mxCell id="30" value="" style="edgeStyle=none;html=1;" parent="1" source="26" target="29" edge="1">
                    <mxGeometry relative="1" as="geometry"/>
                </mxCell>
                <mxCell id="31" value="是" style="edgeLabel;html=1;align=center;verticalAlign=middle;resizable=0;points=[];" parent="30" vertex="1" connectable="0">
                    <mxGeometry x="-0.1111" y="-3" relative="1" as="geometry">
                        <mxPoint as="offset"/>
                    </mxGeometry>
                </mxCell>
                <mxCell id="33" value="否" style="edgeStyle=none;html=1;" parent="1" source="26" target="32" edge="1">
                    <mxGeometry relative="1" as="geometry"/>
                </mxCell>
                <mxCell id="26" value="是配送中状态" style="rhombus;whiteSpace=wrap;html=1;" parent="1" vertex="1">
                    <mxGeometry x="470" y="330" width="210" height="80" as="geometry"/>
                </mxCell>
                <mxCell id="38" style="edgeStyle=none;html=1;entryX=0.5;entryY=0;entryDx=0;entryDy=0;" parent="1" source="29" target="36" edge="1">
                    <mxGeometry relative="1" as="geometry"/>
                </mxCell>
                <mxCell id="29" value="先创建运输单，创建召回订单，&lt;br&gt;取消配送，取消调度" style="whiteSpace=wrap;html=1;" parent="1" vertex="1">
                    <mxGeometry x="515" y="500" width="120" height="60" as="geometry"/>
                </mxCell>
                <mxCell id="32" value="触发召回失败" style="whiteSpace=wrap;html=1;" parent="1" vertex="1">
                    <mxGeometry x="960" y="380" width="120" height="60" as="geometry"/>
                </mxCell>
                <mxCell id="40" value="" style="edgeStyle=none;html=1;" parent="1" source="36" target="39" edge="1">
                    <mxGeometry relative="1" as="geometry"/>
                </mxCell>
                <mxCell id="44" value="" style="edgeStyle=none;html=1;" parent="1" source="36" target="43" edge="1">
                    <mxGeometry relative="1" as="geometry"/>
                </mxCell>
                <mxCell id="59" value="" style="edgeStyle=none;html=1;" parent="1" source="36" target="58" edge="1">
                    <mxGeometry relative="1" as="geometry"/>
                </mxCell>
                <mxCell id="63" value="" style="edgeStyle=none;html=1;" parent="1" source="36" target="62" edge="1">
                    <mxGeometry relative="1" as="geometry"/>
                </mxCell>
                <mxCell id="36" value="创建召回订单（配送单A-A），设置优先级，订单状态待配送" style="whiteSpace=wrap;html=1;" parent="1" vertex="1">
                    <mxGeometry x="310" y="670" width="120" height="60" as="geometry"/>
                </mxCell>
                <mxCell id="42" value="" style="edgeStyle=none;html=1;" parent="1" source="39" target="41" edge="1">
                    <mxGeometry relative="1" as="geometry"/>
                </mxCell>
                <mxCell id="50" value="" style="edgeStyle=none;html=1;" parent="1" source="39" target="49" edge="1">
                    <mxGeometry relative="1" as="geometry"/>
                </mxCell>
                <mxCell id="65" value="" style="edgeStyle=none;html=1;" parent="1" source="39" target="64" edge="1">
                    <mxGeometry relative="1" as="geometry"/>
                </mxCell>
                <mxCell id="39" value="召回订单回到起点（先创建运输单（A-B），在签收召回单）" style="whiteSpace=wrap;html=1;" parent="1" vertex="1">
                    <mxGeometry x="310" y="830" width="120" height="60" as="geometry"/>
                </mxCell>
                <mxCell id="56" value="" style="edgeStyle=none;html=1;" parent="1" source="41" target="55" edge="1">
                    <mxGeometry relative="1" as="geometry"/>
                </mxCell>
                <mxCell id="41" value="正常配送-配送单" style="whiteSpace=wrap;html=1;" parent="1" vertex="1">
                    <mxGeometry x="310" y="1030" width="120" height="60" as="geometry"/>
                </mxCell>
                <mxCell id="48" style="edgeStyle=none;html=1;entryX=0;entryY=0.5;entryDx=0;entryDy=0;" parent="1" source="43" target="46" edge="1">
                    <mxGeometry relative="1" as="geometry"/>
                </mxCell>
                <mxCell id="43" value="直接转化为最高优先级，不知道当前柜子是否直接执行，还是先把已收集任务完成" style="whiteSpace=wrap;html=1;" parent="1" vertex="1">
                    <mxGeometry x="505" y="590" width="122.5" height="80" as="geometry"/>
                </mxCell>
                <mxCell id="46" value="召回订单被取消？怎么处理（不能取消）" style="whiteSpace=wrap;html=1;" parent="1" vertex="1">
                    <mxGeometry x="700" y="590" width="105" height="60" as="geometry"/>
                </mxCell>
                <mxCell id="52" value="" style="edgeStyle=none;html=1;" parent="1" source="49" target="51" edge="1">
                    <mxGeometry relative="1" as="geometry"/>
                </mxCell>
                <mxCell id="49" value="先创建一个运输单，创建配送单（A-B）的时间？" style="whiteSpace=wrap;html=1;" parent="1" vertex="1">
                    <mxGeometry x="509" y="830" width="120" height="60" as="geometry"/>
                </mxCell>
                <mxCell id="54" value="" style="edgeStyle=none;html=1;" parent="1" source="51" target="53" edge="1">
                    <mxGeometry relative="1" as="geometry"/>
                </mxCell>
                <mxCell id="51" value="等待超时怎么处理？（正常流程）" style="whiteSpace=wrap;html=1;" parent="1" vertex="1">
                    <mxGeometry x="710" y="830" width="120" height="60" as="geometry"/>
                </mxCell>
                <mxCell id="53" value="A-A后B点的能开箱吗？（不存在）" style="whiteSpace=wrap;html=1;" parent="1" vertex="1">
                    <mxGeometry x="910" y="830" width="120" height="60" as="geometry"/>
                </mxCell>
                <mxCell id="55" value="正常流程" style="whiteSpace=wrap;html=1;" parent="1" vertex="1">
                    <mxGeometry x="510" y="1030" width="120" height="60" as="geometry"/>
                </mxCell>
                <mxCell id="58" value="异常走正常配送" style="whiteSpace=wrap;html=1;" parent="1" vertex="1">
                    <mxGeometry x="500" y="710" width="120" height="60" as="geometry"/>
                </mxCell>
                <mxCell id="60" value="召回触发接口" style="whiteSpace=wrap;html=1;fillColor=#fff2cc;strokeColor=#d6b656;" parent="1" vertex="1">
                    <mxGeometry x="305" y="90" width="120" height="60" as="geometry"/>
                </mxCell>
                <mxCell id="62" value="前端不能取消，不能召回" style="whiteSpace=wrap;html=1;fillColor=#fff2cc;strokeColor=#d6b656;" parent="1" vertex="1">
                    <mxGeometry x="100" y="620" width="120" height="60" as="geometry"/>
                </mxCell>
                <mxCell id="64" value="取件，后台返回A到B的单信息返回（当前订单状态投柜中）" style="whiteSpace=wrap;html=1;fillColor=#fff2cc;strokeColor=#d6b656;" parent="1" vertex="1">
                    <mxGeometry x="110" y="830" width="120" height="60" as="geometry"/>
                </mxCell>
                <mxCell id="66" value="获取当前柜子的召回逻辑" style="whiteSpace=wrap;html=1;fillColor=#fff2cc;strokeColor=#d6b656;" parent="1" vertex="1">
                    <mxGeometry x="100" y="720" width="120" height="60" as="geometry"/>
                </mxCell>
                <mxCell id="68" value="已确认状态怎么处理" style="whiteSpace=wrap;html=1;fillColor=#f8cecc;strokeColor=#b85450;" parent="1" vertex="1">
                    <mxGeometry x="770" y="120" width="120" height="60" as="geometry"/>
                </mxCell>
            </root>
        </mxGraphModel>
    </diagram>
</mxfile>